<svg id="Capa_1" xmlns="http://www.w3.org/2000/svg" viewBox="0 0 397 397"><style>.st0{fill:#e7a285}</style><path class="st0" d="M369.5 36h-27.4V7.5c0-4.1-3.4-7.5-7.5-7.5s-7.5 3.4-7.5 7.5V36h-39.4V7.5c0-4.1-3.4-7.5-7.5-7.5s-7.5 3.4-7.5 7.5V36h-39.4V7.5c0-4.1-3.4-7.5-7.5-7.5s-7.5 3.4-7.5 7.5V36h-39.4V7.5c0-4.1-3.4-7.5-7.5-7.5s-7.5 3.4-7.5 7.5V36h-39.4V7.5c0-4.1-3.4-7.5-7.5-7.5s-7.5 3.4-7.5 7.5V36H69.9V7.5c0-4.1-3.4-7.5-7.5-7.5s-7.5 3.4-7.5 7.5V36H27.5c-4.1 0-7.5 3.4-7.5 7.5v320c0 4.1 3.4 7.5 7.5 7.5h342c4.1 0 7.5-3.4 7.5-7.5v-320c0-4.1-3.4-7.5-7.5-7.5zM54.9 51v20.5c0 4.1 3.4 7.5 7.5 7.5s7.5-3.4 7.5-7.5V51h39.4v20.5c0 4.1 3.4 7.5 7.5 7.5s7.5-3.4 7.5-7.5V51h39.4v20.5c0 4.1 3.4 7.5 7.5 7.5s7.5-3.4 7.5-7.5V51h39.4v20.5c0 4.1 3.4 7.5 7.5 7.5s7.5-3.4 7.5-7.5V51h39.4v20.5c0 4.1 3.4 7.5 7.5 7.5s7.5-3.4 7.5-7.5V51h39.4v20.5c0 4.1 3.4 7.5 7.5 7.5s7.5-3.4 7.5-7.5V51H362v69H35V51h19.9zM35 356V135h327v221H35zM345.1 382H51.9c-4.1 0-7.5 3.4-7.5 7.5s3.4 7.5 7.5 7.5H345c4.1 0 7.5-3.4 7.5-7.5s-3.3-7.5-7.4-7.5z"/><path class="st0" d="M126.1 162.3c-2.9-2.9-7.7-2.9-10.6 0l-4.2 4.2-4.2-4.2c-2.9-2.9-7.7-2.9-10.6 0s-2.9 7.7 0 10.6l4.2 4.2-4.2 4.2c-2.9 2.9-2.9 7.7 0 10.6 1.5 1.5 3.4 2.2 5.3 2.2s3.8-.7 5.3-2.2l4.2-4.2 4.2 4.2c1.5 1.5 3.4 2.2 5.3 2.2s3.8-.7 5.3-2.2c2.9-2.9 2.9-7.7 0-10.6l-4.2-4.2 4.2-4.2c3-2.9 3-7.7 0-10.6zM82.5 162.3c-2.9-2.9-7.7-2.9-10.6 0l-4.2 4.2-4.2-4.2c-2.9-2.9-7.7-2.9-10.6 0-2.9 2.9-2.9 7.7 0 10.6l4.2 4.2-4.2 4.2c-2.9 2.9-2.9 7.7 0 10.6 1.5 1.5 3.4 2.2 5.3 2.2s3.8-.7 5.3-2.2l4.2-4.2 4.2 4.2c1.5 1.5 3.4 2.2 5.3 2.2s3.8-.7 5.3-2.2c2.9-2.9 2.9-7.7 0-10.6l-4.2-4.2 4.2-4.2c2.9-2.9 2.9-7.7 0-10.6zM169.7 162.3c-2.9-2.9-7.7-2.9-10.6 0l-4.2 4.2-4.2-4.2c-2.9-2.9-7.7-2.9-10.6 0-2.9 2.9-2.9 7.7 0 10.6l4.2 4.2-4.2 4.2c-2.9 2.9-2.9 7.7 0 10.6 1.5 1.5 3.4 2.2 5.3 2.2s3.8-.7 5.3-2.2l4.2-4.2 4.2 4.2c1.5 1.5 3.4 2.2 5.3 2.2s3.8-.7 5.3-2.2c2.9-2.9 2.9-7.7 0-10.6l-4.2-4.2 4.2-4.2c3-2.9 3-7.7 0-10.6zM300.6 162.3c-2.9-2.9-7.7-2.9-10.6 0l-4.2 4.2-4.2-4.2c-2.9-2.9-7.7-2.9-10.6 0-2.9 2.9-2.9 7.7 0 10.6l4.2 4.2-4.2 4.2c-2.9 2.9-2.9 7.7 0 10.6 1.5 1.5 3.4 2.2 5.3 2.2s3.8-.7 5.3-2.2l4.2-4.2 4.2 4.2c1.5 1.5 3.4 2.2 5.3 2.2s3.8-.7 5.3-2.2c2.9-2.9 2.9-7.7 0-10.6l-4.2-4.2 4.2-4.2c2.9-2.9 2.9-7.7 0-10.6zM344.2 162.3c-2.9-2.9-7.7-2.9-10.6 0l-4.2 4.2-4.2-4.2c-2.9-2.9-7.7-2.9-10.6 0s-2.9 7.7 0 10.6l4.2 4.2-4.2 4.2c-2.9 2.9-2.9 7.7 0 10.6 1.5 1.5 3.4 2.2 5.3 2.2s3.8-.7 5.3-2.2l4.2-4.2 4.2 4.2c1.5 1.5 3.4 2.2 5.3 2.2s3.8-.7 5.3-2.2c2.9-2.9 2.9-7.7 0-10.6l-4.2-4.2 4.2-4.2c2.9-2.9 2.9-7.7 0-10.6zM213.3 162.3c-2.9-2.9-7.7-2.9-10.6 0l-4.2 4.2-4.2-4.2c-2.9-2.9-7.7-2.9-10.6 0-2.9 2.9-2.9 7.7 0 10.6l4.2 4.2-4.2 4.2c-2.9 2.9-2.9 7.7 0 10.6 1.5 1.5 3.4 2.2 5.3 2.2s3.8-.7 5.3-2.2l4.2-4.2 4.2 4.2c1.5 1.5 3.4 2.2 5.3 2.2s3.8-.7 5.3-2.2c2.9-2.9 2.9-7.7 0-10.6l-4.2-4.2 4.2-4.2c3-2.9 3-7.7 0-10.6zM257 162.3c-2.9-2.9-7.7-2.9-10.6 0l-4.2 4.2-4.2-4.2c-2.9-2.9-7.7-2.9-10.6 0s-2.9 7.7 0 10.6l4.2 4.2-4.2 4.2c-2.9 2.9-2.9 7.7 0 10.6 1.5 1.5 3.4 2.2 5.3 2.2s3.8-.7 5.3-2.2l4.2-4.2 4.2 4.2c1.5 1.5 3.4 2.2 5.3 2.2s3.8-.7 5.3-2.2c2.9-2.9 2.9-7.7 0-10.6l-4.2-4.2 4.2-4.2c2.9-2.9 2.9-7.7 0-10.6zM126.1 207c-2.9-2.9-7.7-2.9-10.6 0l-4.2 4.2-4.3-4.2c-2.9-2.9-7.7-2.9-10.6 0s-2.9 7.7 0 10.6l4.2 4.2-4.2 4.2c-2.9 2.9-2.9 7.7 0 10.6 1.5 1.5 3.4 2.2 5.3 2.2s3.8-.7 5.3-2.2l4.2-4.2 4.2 4.2c1.5 1.5 3.4 2.2 5.3 2.2s3.8-.7 5.3-2.2c2.9-2.9 2.9-7.7 0-10.6l-4.2-4.2 4.2-4.2c3.1-3 3.1-7.7.1-10.6zM82.5 207c-2.9-2.9-7.7-2.9-10.6 0l-4.2 4.2-4.2-4.2c-2.9-2.9-7.7-2.9-10.6 0-2.9 2.9-2.9 7.7 0 10.6l4.2 4.2-4.2 4.2c-2.9 2.9-2.9 7.7 0 10.6 1.5 1.5 3.4 2.2 5.3 2.2s3.8-.7 5.3-2.2l4.2-4.2 4.2 4.2c1.5 1.5 3.4 2.2 5.3 2.2s3.8-.7 5.3-2.2c2.9-2.9 2.9-7.7 0-10.6l-4.2-4.2 4.2-4.2c2.9-3 2.9-7.7 0-10.6zM169.7 207c-2.9-2.9-7.7-2.9-10.6 0l-4.2 4.2-4.2-4.2c-2.9-2.9-7.7-2.9-10.6 0s-2.9 7.7 0 10.6l4.2 4.2-4.3 4.2c-2.9 2.9-2.9 7.7 0 10.6 1.5 1.5 3.4 2.2 5.3 2.2s3.8-.7 5.3-2.2l4.2-4.2 4.2 4.2c1.5 1.5 3.4 2.2 5.3 2.2s3.8-.7 5.3-2.2c2.9-2.9 2.9-7.7 0-10.6l-4.2-4.2 4.2-4.2c3.1-3 3.1-7.7.1-10.6zM213.3 207c-2.9-2.9-7.7-2.9-10.6 0l-4.2 4.2-4.2-4.2c-2.9-2.9-7.7-2.9-10.6 0s-2.9 7.7 0 10.6l4.2 4.2-4.2 4.2c-2.9 2.9-2.9 7.7 0 10.6 1.5 1.5 3.4 2.2 5.3 2.2s3.8-.7 5.3-2.2l4.2-4.2 4.2 4.2c1.5 1.5 3.4 2.2 5.3 2.2s3.8-.7 5.3-2.2c2.9-2.9 2.9-7.7 0-10.6l-4.2-4.2 4.2-4.2c3-3 3-7.7 0-10.6zM336.3 308.2c-1.1-2.9-4.1-4.7-7.2-4.6-3.4.1-6.3 2.5-7.1 5.8-.7 3 .6 6.2 3.1 7.9 2.9 1.9 7 1.6 9.5-.9 2.2-2.1 2.8-5.5 1.7-8.2-.2-.4.2.5 0 0zM71.8 304.8c-2.7-1.8-6.3-1.6-8.8.4-2.4 1.9-3.4 5.1-2.5 8.1.9 3 3.7 5.2 6.9 5.3 3.1.1 6-1.8 7.2-4.6 1.4-3.3.1-7.2-2.8-9.2-.4-.2.4.3 0 0zM292.7 308.2c-.4-.9-.9-1.7-1.6-2.4-2.7-2.7-7.1-2.9-10.1-.5-3 2.5-3.6 7-1.3 10.2 2.1 3 6.2 3.9 9.5 2.3 3.4-1.8 4.9-6.1 3.5-9.6-.2-.4.1.5 0 0zM249 308.2c-1.9-4.8-8.6-6.2-12.2-2.4-2.9 2.8-2.9 7.8 0 10.6.3.4.7.7 1.1.9 2.6 1.8 6.3 1.6 8.8-.3 2.6-2 3.6-5.7 2.3-8.8-.1-.4.2.5 0 0zM205.4 308.2c-1.2-2.8-3.9-4.6-6.9-4.6-3.3 0-6.2 2.2-7.2 5.3-2 6.5 5.5 12.2 11.2 8.5 3-1.9 4.3-5.9 2.9-9.2-.2-.4.2.5 0 0zM159.1 304.8c-2.9-1.9-7-1.6-9.5.9-2.9 2.8-2.9 7.8 0 10.6 3.2 3.3 8.9 2.7 11.5-1.1 2.3-3.3 1.4-8-2-10.4-.5-.2.4.3 0 0zM118.2 308.2c-.4-.9-.9-1.8-1.6-2.4-4.5-4.7-12.6-1.3-12.8 5.1-.2 6.6 8.1 10.3 12.8 5.5 2.1-2.1 2.7-5.5 1.6-8.2-.2-.4.2.5 0 0zM336.3 263.6c-2.4-6.1-11.4-6-13.9 0-1.3 3.1-.3 6.7 2.3 8.8 2.4 1.9 5.8 2.1 8.5.6 3.1-2 4.5-6 3.1-9.4-.2-.5.2.4 0 0zM74.6 263.6c-2.6-6.1-11.5-6-13.9.2-2.5 6.4 4.6 12.5 10.6 9.3 3.2-1.9 4.8-6 3.3-9.5-.2-.5.2.4 0 0zM289.9 260.2c-5.7-3.7-13.2 1.7-11.4 8.2.8 3 3.5 5.2 6.7 5.5 3.3.3 6.4-1.7 7.5-4.8 1.3-3.2.1-6.9-2.8-8.9-.4-.3.4.3 0 0zM249 263.6c-1.8-4.4-7.4-6-11.2-3.3-3.7 2.6-4.3 8.2-1 11.5 2.5 2.6 6.7 2.9 9.6.9 2.8-2.1 4-5.9 2.6-9.1-.1-.5.2.4 0 0zM205.4 263.6c-1.2-2.8-4-4.7-7.1-4.6-3.3.1-6.3 2.4-7.1 5.7-1.6 6.6 6.1 11.9 11.7 7.9 2.8-2.1 3.9-5.9 2.5-9-.2-.5.2.4 0 0zM159.1 260.2c-2.9-1.9-7-1.6-9.5.9-2.9 2.8-2.9 7.8 0 10.6 3.1 3.2 8.7 2.8 11.3-.8 2.5-3.4 1.6-8.3-1.8-10.7-.5-.3.4.3 0 0zM115.4 260.2c-5.2-3.5-12.4 1-11.6 7.2.8 6 8.4 8.8 12.7 4.4 3.5-3.3 2.7-9-1.1-11.6-.4-.3.4.3 0 0zM333.5 215.6c-2.8-1.9-6.6-1.6-9.1.6-2.2 2-3.1 5.3-2.1 8.1 1.1 3.1 4.2 5.2 7.5 5 3-.2 5.6-2.2 6.6-5 1.2-3.2-.1-6.8-2.9-8.7-.4-.3.4.2 0 0zM292.7 218.9c-1.3-3-4.4-4.9-7.7-4.6-3.1.3-5.7 2.5-6.5 5.5-1.8 6.6 5.9 12.1 11.5 8.2 2.9-2 4-5.9 2.7-9.1-.2-.4.1.5 0 0zM249 218.9c-1.9-4.8-8.6-6.2-12.2-2.4-4.2 4.1-1.9 11.4 3.7 12.6 5.8 1.3 10.9-4.7 8.5-10.2-.1-.4.2.5 0 0z"/></svg>