<svg id="Layer_1" xmlns="http://www.w3.org/2000/svg" viewBox="0 0 862.9 490.9"><style>.st1{fill:#fff}</style><path fill="#1c918e" d="M0 0h862.9v490.9H0z"/><path class="st1" d="M160.7 171.5l76.3 92.9h29.1V111.3h-35v93l-76.1-93h-29.3v153.1h35zM438.8 239.7l-22.7-21c-10.4 12.1-23.2 18.2-38.5 18.2-9.5 0-17.9-2.1-25.4-6.2-7.4-4.2-13.2-10-17.4-17.4-4.2-7.4-6.2-15.9-6.2-25.4 0-9.5 2.1-17.9 6.2-25.4 4.1-7.4 9.9-13.2 17.4-17.4 7.4-4.2 15.9-6.2 25.4-6.2 15.3 0 28.1 6 38.5 17.9l22.7-21c-7.3-8.8-16.3-15.5-27-20.1-10.7-4.7-22.7-7-36-7-15.7 0-29.9 3.4-42.5 10.2-12.6 6.8-22.5 16.2-29.8 28.2-7.2 12-10.8 25.6-10.8 40.8 0 15.2 3.6 28.8 10.8 40.8 7.2 12 17.1 21.4 29.8 28.2 12.6 6.8 26.7 10.2 42.3 10.2 13.3 0 25.3-2.3 36.1-7s19.9-11.5 27.1-20.4zM606 228.1c7.1-11.5 10.6-24.9 10.6-40.2 0-4-.2-7.8-.7-11.6l15.2-15.2c2.6 1.6 5.4 2.8 8.3 3.4v46.8c-4.8 1.1-9.4 3.5-13.1 7.2a27.22 27.22 0 0 0 0 38.6 27.22 27.22 0 0 0 38.6 0c9.1-9.1 10.4-23.2 3.8-33.7l9.2-9.2c.4.3.8.7 1.2 1l.2.2c6 4.7 13.5 7.5 21.7 7.5 10.9 0 20.6-5 27.1-12.7.3-.4.6-.7.9-1.1.8-1 1.5-2 2.2-3 .9-1.4 1.7-2.9 2.5-4.5.3-.6.5-1.3.7-1.9.5-1.4 1-2.8 1.3-4.3.1-.6.3-1.3.4-1.9.4-2.1.6-4.2.6-6.4 0-2.5-.3-4.9-.7-7.2-3.3-16.3-17.8-28.6-35.1-28.6-2.2 0-4.4.3-6.5.7-.7.1-1.3.3-2 .5-1.4.3-2.8.8-4.1 1.3-.7.3-1.5.6-2.2.9-1.2.6-2.4 1.2-3.6 1.9-1.2.7-2.3 1.5-3.4 2.3-.9.7-1.8 1.4-2.7 2.2-.9.9-1.7 1.8-2.6 2.8-.4.5-.9 1-1.2 1.5-.8 1.1-1.6 2.2-2.3 3.4-.2.3-.4.7-.6 1-2.9 5.1-4.6 11-4.6 17.3 0 4.7 1 9.1 2.7 13.2 0 0 0 .1.1.1.6 1.4 1.3 2.8 2 4.2l-10 10c-2.6-1.6-5.4-2.7-8.2-3.4v-46.8c4.8-1.1 9.3-3.5 13.1-7.2a27.22 27.22 0 0 0 0-38.6 27.22 27.22 0 0 0-38.6 0c-9.1 9.1-10.4 23.2-3.8 33.7l-9.7 9.7c-1.7-5.1-3.9-9.9-6.7-14.4-7.1-11.5-17-20.4-29.7-26.8-12.8-6.3-27.5-9.5-44.1-9.5h-69.5v153.1h69.5c16.6 0 31.3-3.2 44.1-9.5 12.7-6.4 22.6-15.3 29.7-26.8zm75.7-44.5c1.7-9.3 9.7-15.9 18.8-16.1 1.3 0 2.6.1 4 .3 6.7 1.2 11.9 5.6 14.5 11.4 1 2.3 1.6 4.8 1.7 7.4 0 1.3-.1 2.6-.3 4-1.9 10.6-11.9 17.6-22.5 15.8h-.3c-10.7-1.9-17.8-12.1-15.9-22.8zm-23.8 45.7c4.7 6.8 3 16.1-3.8 20.8s-16.1 3-20.8-3.8c-4.7-6.8-3-16.1 3.8-20.8 6.7-4.7 16.1-3 20.8 3.8zM637 125.6c6.8-4.7 16.1-3 20.8 3.8 4.7 6.8 3 16.1-3.8 20.8-6.8 4.7-16.1 3-20.8-3.8-4.6-6.7-3-16 3.8-20.8zm-69.9 96.9c-9.1 8.5-21.3 12.8-36.6 12.8h-32.4v-94.9h32.4c15.3 0 27.5 4.3 36.6 12.8 9.1 8.5 13.7 20.1 13.7 34.6 0 14.6-4.6 26.2-13.7 34.7zM158 316c4-2.3 8.6-3.4 13.8-3.4 8.3 0 15.3 3.2 20.9 9.7l12.4-11.4c-4-4.8-8.9-8.4-14.7-10.9-5.8-2.5-12.3-3.8-19.5-3.8-8.6 0-16.3 1.8-23.1 5.5-6.9 3.7-12.2 8.8-16.2 15.3-3.9 6.5-5.9 13.9-5.9 22.2 0 8.2 2 15.6 5.9 22.2 3.9 6.5 9.3 11.6 16.2 15.3 6.8 3.7 14.5 5.5 23 5.5 7.2 0 13.7-1.3 19.6-3.8 5.9-2.5 10.8-6.2 14.7-11L192.7 356c-5.6 6.6-12.6 9.9-20.9 9.9-5.2 0-9.7-1.1-13.8-3.4-4-2.3-7.2-5.4-9.4-9.4-2.3-4-3.4-8.6-3.4-13.8 0-5.1 1.1-9.7 3.4-13.8 2.2-4.1 5.4-7.3 9.4-9.5zM279.8 301.8c-6.9-3.7-14.7-5.6-23.3-5.6-8.6 0-16.4 1.9-23.3 5.6-6.9 3.7-12.4 8.9-16.3 15.4-3.9 6.5-5.9 13.9-5.9 22 0 8.2 2 15.5 5.9 22 3.9 6.5 9.3 11.7 16.3 15.4 6.9 3.7 14.7 5.6 23.3 5.6 8.6 0 16.4-1.9 23.3-5.6 6.9-3.7 12.3-8.9 16.3-15.4s5.9-13.9 5.9-22-2-15.5-5.9-22c-4-6.6-9.4-11.7-16.3-15.4zm-.7 51.2c-2.3 4-5.4 7.2-9.3 9.4-4 2.3-8.4 3.4-13.3 3.4s-9.3-1.1-13.3-3.4-7.1-5.4-9.3-9.4c-2.3-4-3.4-8.6-3.4-13.8 0-5.1 1.1-9.7 3.4-13.8 2.3-4 5.4-7.2 9.3-9.4 4-2.3 8.4-3.4 13.3-3.4s9.3 1.1 13.3 3.4 7.1 5.4 9.3 9.4c2.3 4 3.4 8.6 3.4 13.8 0 5.2-1.1 9.8-3.4 13.8zM373.7 348.1l-41.3-50.5h-15.9v83.2h19v-50.5l41.4 50.5h15.8v-83.2h-19zM469.7 348.1l-41.3-50.5h-16v83.2h19.1v-50.5l41.4 50.5h15.8v-83.2h-19zM527.5 346.1h38.7v-15h-38.7v-18h43.8v-15.5h-62.9v83.2h64.4v-15.5h-45.3zM615 316c4-2.3 8.6-3.4 13.8-3.4 8.3 0 15.3 3.2 20.9 9.7l12.4-11.4c-4-4.8-8.9-8.4-14.7-10.9-5.8-2.5-12.3-3.8-19.5-3.8-8.6 0-16.3 1.8-23.1 5.5-6.9 3.7-12.2 8.8-16.2 15.3-3.9 6.5-5.9 13.9-5.9 22.2 0 8.2 2 15.6 5.9 22.2 3.9 6.5 9.3 11.6 16.2 15.3 6.8 3.7 14.5 5.5 23 5.5 7.2 0 13.7-1.3 19.6-3.8 5.9-2.5 10.8-6.2 14.7-11L649.7 356c-5.6 6.6-12.6 9.9-20.9 9.9-5.2 0-9.7-1.1-13.8-3.4-4-2.3-7.2-5.4-9.4-9.4-2.3-4-3.4-8.6-3.4-13.8 0-5.1 1.1-9.7 3.4-13.8 2.2-4.1 5.3-7.3 9.4-9.5zM664.7 297.6v15.7h26.7v67.5h19.2v-67.5h26.6v-15.7z"/></svg>