<svg id="Layer_1" xmlns="http://www.w3.org/2000/svg" viewBox="0 0 470 470"><style>.st0{fill:#fff}</style><path class="st0" d="M430.8 30h-40.5c-4.1 0-7.5 3.4-7.5 7.5s3.4 7.5 7.5 7.5h14c-2.8 4.7-4.5 10.1-4.5 16v354.5c0 4.1 3.4 7.5 7.5 7.5s7.5-3.4 7.5-7.5V61c0-8.8 7.2-16 16-16s16 7.2 16 16v354.5c0 21.8-17.7 39.5-39.5 39.5s-39.5-17.7-39.5-39.5V7.5c0-4.1-3.4-7.5-7.5-7.5H15.7c-4.1 0-7.5 3.4-7.5 7.5v408c0 30 24.4 54.5 54.5 54.5h344.6c30 0 54.5-24.4 54.5-54.5V61c0-17.1-13.9-31-31-31zM62.7 455c-21.8 0-39.5-17.7-39.5-39.5V15h329.6v400.5c0 15.5 6.5 29.6 17 39.5H62.7z"/><path class="st0" d="M320.3 40H55.7c-4.1 0-7.5 3.4-7.5 7.5v75c0 4.1 3.4 7.5 7.5 7.5h264.6c4.1 0 7.5-3.4 7.5-7.5v-75c0-4.1-3.3-7.5-7.5-7.5zm-7.5 75H63.2V55h249.6v60zm7.5 30H55.7c-4.1 0-7.5 3.4-7.5 7.5s3.4 7.5 7.5 7.5h264.6c4.1 0 7.5-3.4 7.5-7.5s-3.3-7.5-7.5-7.5zm0 60H203c-4.1 0-7.5 3.4-7.5 7.5s3.4 7.5 7.5 7.5h117.3c4.1 0 7.5-3.4 7.5-7.5s-3.3-7.5-7.5-7.5zM173 205H55.7c-4.1 0-7.5 3.4-7.5 7.5s3.4 7.5 7.5 7.5H173c4.1 0 7.5-3.4 7.5-7.5s-3.4-7.5-7.5-7.5zm147.3 30H203c-4.1 0-7.5 3.4-7.5 7.5s3.4 7.5 7.5 7.5h117.3c4.1 0 7.5-3.4 7.5-7.5s-3.3-7.5-7.5-7.5zM173 235H55.7c-4.1 0-7.5 3.4-7.5 7.5s3.4 7.5 7.5 7.5H173c4.1 0 7.5-3.4 7.5-7.5s-3.4-7.5-7.5-7.5zm147.3 30H203c-4.1 0-7.5 3.4-7.5 7.5s3.4 7.5 7.5 7.5h117.3c4.1 0 7.5-3.4 7.5-7.5s-3.3-7.5-7.5-7.5zm0 30H203c-4.1 0-7.5 3.4-7.5 7.5s3.4 7.5 7.5 7.5h117.3c4.1 0 7.5-3.4 7.5-7.5s-3.3-7.5-7.5-7.5zM203 340h77.3c4.1 0 7.5-3.4 7.5-7.5s-3.4-7.5-7.5-7.5H203c-4.1 0-7.5 3.4-7.5 7.5s3.4 7.5 7.5 7.5zm77.3 75H203c-4.1 0-7.5 3.4-7.5 7.5s3.4 7.5 7.5 7.5h77.3c4.1 0 7.5-3.4 7.5-7.5s-3.3-7.5-7.5-7.5zm40-30H203c-4.1 0-7.5 3.4-7.5 7.5s3.4 7.5 7.5 7.5h117.3c4.1 0 7.5-3.4 7.5-7.5s-3.3-7.5-7.5-7.5zM173 265H55.7c-4.1 0-7.5 3.4-7.5 7.5v150c0 4.1 3.4 7.5 7.5 7.5H173c4.1 0 7.5-3.4 7.5-7.5v-150c0-4.1-3.4-7.5-7.5-7.5zm-7.5 150H63.2V280h102.3v135z"/></svg>