<svg id="Capa_1" xmlns="http://www.w3.org/2000/svg" viewBox="0 0 512 512"><style>.st0{fill:#fff}</style><path d="M176.7 182.8zM106.3 321.7l.1-.4zM209.8 231l.1-.5zM236.3 386.1z"/><path class="st0" d="M357.1 208.8c-22.3 0-40.4 18.1-40.4 40.4s18.1 40.4 40.4 40.4c22.3 0 40.4-18.1 40.4-40.4 0-22.3-18.1-40.4-40.4-40.4zm0 60.7c-11.1 0-20.2-9.1-20.2-20.2s9.1-20.2 20.2-20.2 20.2 9.1 20.2 20.2-9.1 20.2-20.2 20.2z"/><path class="st0" d="M256 0c-38.6 0-75.1 8.7-107.9 24-15.7-14.8-37-24-60.5-24C39.3 0 0 38.5 0 85.9c0 17.8 10.9 40.3 24.4 61.2C8.8 180.2 0 217 0 256c0 141.4 114.6 256 256 256s256-114.6 256-256S397.4 0 256 0zM20.2 85.9c0-36.3 30.2-65.7 67.4-65.7S155 49.6 155 85.9c0 36.3-67.4 109.5-67.4 109.5S20.2 122.2 20.2 85.9zm0 170.1c0-31.6 6.3-61.7 17.6-89.3 14.8 20.1 29.5 36.5 34.9 42.3l14.9 16.2 14.9-16.2c12.1-13.2 72.7-81.1 72.7-123.2 0-16.9-5-32.5-13.6-45.8 16.2-7.1 33.4-12.5 51.3-15.8l-5.5 9.8c-2.6 4.8-3.6 9.9-3.7 15 .1 6.4 1.5 12.8 5.5 18.5l15.4 21.6c.8 1.1 2 3.5 2.7 6.1.8 2.6 1.2 5.6 1.2 7.8 0 1-.1 1.9-.2 2.6l-4 21.7c-.2 1.4-1.5 4.3-3.4 6.6-1.8 2.4-4.3 4.3-5.6 4.9l-27 12.5c-8.6 4-13.7 12.6-13.7 21.5 0 3.3.7 6.6 2.2 9.8l11.4 24.8c.6 1.3 1.3 3.5 1.7 5.9.5 2.5.7 5.2.7 7.6 0 2.2-.2 4.1-.5 5.4l-.1.5-3.1 13.5c-.3 1.6-1.8 4.7-3.8 7.2-2 2.6-4.5 4.8-6 5.5l-20 10.6c-1 .6-3.3 1.2-5.8 1.2-3 0-6.1-.9-7.2-1.7l-16.3-10.5c-5.4-3.4-11.4-4.7-17.4-4.7-5.5 0-11 1.1-16.2 4.1l-16.4 10c-3.1 1.9-5.8 4.4-7.7 7.5-1.8 3.1-2.9 6.6-2.8 10.2 0 5.4 2.3 10.7 6.1 14.6l9.2 9.6c.8.8 2.1 2.8 2.9 5 .8 2.3 1.3 4.8 1.3 6.8 0 .8-.1 1.5-.2 2.1l-1.8 8.7c-.4 2.1-1.8 5.7-3.8 9-1.9 3.3-4.3 6.4-5.9 7.7l-8.3 7.4c-5.5 5-12.6 12.4-17.7 18.4-18.4-33.6-28.9-72.1-28.9-113zm169.4 186.4L179 478.8c-48.8-16.9-90.5-49.4-118.8-91.6.9-1.1 1.9-2.4 2.9-3.6 4-5 12.2-13.6 17.1-18l8.3-7.4c3.9-3.6 7.1-8 9.9-12.7 2.7-4.8 4.9-9.8 6-14.9l1.8-8.8c.4-2 .6-4.1.6-6.1 0-4.7-.9-9.3-2.5-13.7-1.6-4.4-3.9-8.5-7.2-12.1l-9.2-9.6-.4-.5.5-.4 16.4-9.7c1-.6 3.4-1.3 5.8-1.3 2.7 0 5.4.8 6.4 1.5l16.3 10.5c5.6 3.6 11.9 4.9 18.2 4.9 5.2 0 10.4-1 15.3-3.5l20-10.6c5.1-2.7 9.1-6.7 12.6-11.1 3.4-4.5 6.1-9.4 7.5-15l3.3-14.2c.7-3.2 1-6.4 1-9.8 0-3.8-.4-7.6-1.1-11.3-.7-3.7-1.7-7.3-3.2-10.7l-11.4-24.9-.3-1.3c0-1.3.8-2.6 2-3.1l27-12.5c5.4-2.5 9.6-6.4 13.1-10.9 3.4-4.5 6.2-9.6 7.3-15.4l4-21.7c.4-2.1.5-4.1.5-6.2 0-4.5-.7-9-2-13.4s-3-8.5-5.7-12.3l-15.4-21.6c-.8-1.1-1.8-4-1.8-6.8 0-2.2.6-4.3 1.1-5.2L237.8 21c6-.5 12.1-.8 18.2-.8 117.2 0 214.7 86 232.8 198.2l-9-5c-3.7-2.1-7.8-3.4-12-4.4-4.2-1-8.6-1.5-12.8-1.5-2.3 0-4.6.2-6.9.6l-1.9.3c-17.1-31.8-50.6-53.4-89.1-53.4-55.8-.1-101.1 45.3-101.1 101 0 34.1 33.4 83.3 59.2 116.2l-15.4 17.3c-.9 1.1-3.3 2.8-6 3.9-2.7 1.2-5.7 1.8-7.5 1.8h-.6l-29.5-2.3-.7-.2v-.1l.1-.6v-.1l5.3-17.5c.7-2.5 1.1-5 1.1-7.4 0-4.8-1.2-9.4-3.4-13.5-2.1-4.1-5.3-7.9-9.6-10.6l-11.8-7.4c-4-2.5-8.6-3.7-13-3.7-7.5 0-15 3.3-20 9.8l-35.8 47.8c-3.2 4.2-4.7 9.2-4.7 14.1 0 7.1 3.2 14.3 9.4 18.9l13.1 9.8c.7.5 1.8 1.7 2.5 3.3.7 1.6 1.2 3.5 1.1 4.9.1.9-.1 1.6-.2 2zM437.9 256c0 44.6-80.8 134.7-80.8 134.7s-80.8-90.1-80.8-134.7c0-44.7 36.2-80.8 80.8-80.8 44.6 0 80.8 36.1 80.8 80.8zM256 491.8c-19.9 0-39.2-2.5-57.6-7.1L209 448c.7-2.5 1-5 1-7.5 0-4.7-1.1-9.2-3-13.4-1.9-4.2-4.7-8-8.7-11l-13.1-9.8c-.9-.6-1.3-1.6-1.3-2.7 0-.7.2-1.4.7-2l35.8-47.8c.7-1 2.2-1.8 3.8-1.7.9 0 1.7.2 2.3.6l11.8 7.4c.7.4 1.7 1.4 2.4 2.8.7 1.3 1.1 3 1.1 4.2 0 .7-.1 1.2-.2 1.6l-5.2 17.5c-.7 2.2-1 4.4-1 6.5 0 5.2 2 10.3 5.6 14.1 3.6 3.8 8.6 6 13.9 6.4l29.5 2.3c.7.1 1.5.1 2.2.1 5.4 0 10.6-1.3 15.5-3.4 4.9-2.1 9.4-5 13.1-9l13.2-14.8c6.2 7.4 11.1 13 13.9 16.1l15 16.8 15-16.8c14.4-16 86-98.4 86-148.2 0-9.8-1.5-19.3-4.1-28.3h.9c2.5 0 5.6.4 8.3 1 2.8.6 5.3 1.6 6.7 2.3l21.5 11.9c.2 4.3.4 8.7.4 13-.2 129.8-106 235.6-236 235.6zM94.2 252.3z"/><g><path class="st0" d="M89.3 47.2c-18.6 0-33.7 15.1-33.7 33.7s15.1 33.7 33.7 33.7S123 99.5 123 80.9c-.1-18.7-15.1-33.7-33.7-33.7zm0 47.1c-7.4 0-13.5-6-13.5-13.5s6-13.5 13.5-13.5c7.4 0 13.5 6 13.5 13.5-.1 7.5-6.1 13.5-13.5 13.5z"/></g></svg>